<?xml version="1.0" encoding="UTF-8"?>
<svg xmlns="http://www.w3.org/2000/svg" viewBox="0 0 400 560" width="400" height="560">
  <rect width="400" height="560" fill="#F5F0E0" rx="12"/>
  <rect x="8" y="8" width="384" height="544" fill="none" stroke="#B8860B" stroke-width="2.5" rx="10"/>
  <rect x="18" y="18" width="364" height="524" fill="none" stroke="#B8860B" stroke-width="0.8" rx="6"/>
  
  <text x="200.0" y="42" text-anchor="middle" font-family="serif" font-size="26" font-weight="bold" fill="#FFD700">III</text>
  
  <g fill="#FFD700" stroke="#B8860B">
    
    <g transform="translate(200.0,140.0) rotate(0)">
      <circle cx="0" cy="0" r="11.200000000000001" fill="inherit" stroke="inherit" stroke-width="2"/>
      <circle cx="0" cy="0" r="8.4" fill="none" stroke="inherit" stroke-width="1"/>
      <line x1="-5.6000000000000005" y1="0" x2="5.6000000000000005" y2="0" stroke="inherit" stroke-width="1.5"/>
      <line x1="0" y1="-5.6000000000000005" x2="0" y2="5.6000000000000005" stroke="inherit" stroke-width="1.5"/>
      <circle cx="0" cy="0" r="2.24" fill="inherit" stroke="inherit" stroke-width="0.5"/>
    </g>
    <g transform="translate(200.0,280.0) rotate(0)">
      <circle cx="0" cy="0" r="11.200000000000001" fill="inherit" stroke="inherit" stroke-width="2"/>
      <circle cx="0" cy="0" r="8.4" fill="none" stroke="inherit" stroke-width="1"/>
      <line x1="-5.6000000000000005" y1="0" x2="5.6000000000000005" y2="0" stroke="inherit" stroke-width="1.5"/>
      <line x1="0" y1="-5.6000000000000005" x2="0" y2="5.6000000000000005" stroke="inherit" stroke-width="1.5"/>
      <circle cx="0" cy="0" r="2.24" fill="inherit" stroke="inherit" stroke-width="0.5"/>
    </g>
    <g transform="translate(200.0,420.0) rotate(0)">
      <circle cx="0" cy="0" r="11.200000000000001" fill="inherit" stroke="inherit" stroke-width="2"/>
      <circle cx="0" cy="0" r="8.4" fill="none" stroke="inherit" stroke-width="1"/>
      <line x1="-5.6000000000000005" y1="0" x2="5.6000000000000005" y2="0" stroke="inherit" stroke-width="1.5"/>
      <line x1="0" y1="-5.6000000000000005" x2="0" y2="5.6000000000000005" stroke="inherit" stroke-width="1.5"/>
      <circle cx="0" cy="0" r="2.24" fill="inherit" stroke="inherit" stroke-width="0.5"/>
    </g>
  </g>
  
  <g transform="translate(200.0,532) rotate(180)">
    <text x="0" y="0" text-anchor="middle" font-family="serif" font-size="26" font-weight="bold" fill="#FFD700">III</text>
  </g>
</svg>